<svg id="visual" viewBox="0 0 900 600" width="900" height="600" xmlns="http://www.w3.org/2000/svg" xmlns:xlink="http://www.w3.org/1999/xlink" version="1.1"><g stroke-width="1" stroke-linejoin="bevel"><path d="M493 333L394 371L510 366Z" fill="#39295a" stroke="#39295a"></path><path d="M493 333L366 297L394 371Z" fill="#25254e" stroke="#25254e"></path><path d="M283 397L376 465L394 371Z" fill="#c62368" stroke="#c62368"></path><path d="M394 371L376 465L510 366Z" fill="#4f2b64" stroke="#4f2b64"></path><path d="M366 297L333 297L394 371Z" fill="#4f2b64" stroke="#4f2b64"></path><path d="M333 297L283 397L394 371Z" fill="#672c6b" stroke="#672c6b"></path><path d="M606 488L624 362L510 366Z" fill="#141f40" stroke="#141f40"></path><path d="M510 366L633 338L493 333Z" fill="#071931" stroke="#071931"></path><path d="M493 333L461 197L366 297Z" fill="#4f2b64" stroke="#4f2b64"></path><path d="M585 184L461 197L493 333Z" fill="#001122" stroke="#001122"></path><path d="M366 297L396 190L333 297Z" fill="#071931" stroke="#071931"></path><path d="M376 465L539 537L510 366Z" fill="#39295a" stroke="#39295a"></path><path d="M624 362L633 338L510 366Z" fill="#af256e" stroke="#af256e"></path><path d="M539 537L606 488L510 366Z" fill="#982870" stroke="#982870"></path><path d="M624 362L688 396L633 338Z" fill="#25254e" stroke="#25254e"></path><path d="M461 197L396 190L366 297Z" fill="#af256e" stroke="#af256e"></path><path d="M283 397L264 483L376 465Z" fill="#672c6b" stroke="#672c6b"></path><path d="M376 465L477 600L539 537Z" fill="#071931" stroke="#071931"></path><path d="M361 600L477 600L376 465Z" fill="#af256e" stroke="#af256e"></path><path d="M539 537L565 600L606 488Z" fill="#25254e" stroke="#25254e"></path><path d="M633 338L585 184L493 333Z" fill="#4f2b64" stroke="#4f2b64"></path><path d="M461 197L370 87L396 190Z" fill="#4f2b64" stroke="#4f2b64"></path><path d="M606 488L688 396L624 362Z" fill="#982870" stroke="#982870"></path><path d="M633 338L669 197L585 184Z" fill="#7f2a6f" stroke="#7f2a6f"></path><path d="M264 483L361 600L376 465Z" fill="#4f2b64" stroke="#4f2b64"></path><path d="M370 87L313 172L396 190Z" fill="#7f2a6f" stroke="#7f2a6f"></path><path d="M396 190L313 172L333 297Z" fill="#001122" stroke="#001122"></path><path d="M333 297L194 313L283 397Z" fill="#39295a" stroke="#39295a"></path><path d="M283 397L211 461L264 483Z" fill="#7f2a6f" stroke="#7f2a6f"></path><path d="M477 600L565 600L539 537Z" fill="#c62368" stroke="#c62368"></path><path d="M606 488L666 516L688 396Z" fill="#001122" stroke="#001122"></path><path d="M565 600L666 516L606 488Z" fill="#141f40" stroke="#141f40"></path><path d="M181 426L211 461L283 397Z" fill="#982870" stroke="#982870"></path><path d="M264 483L275 600L361 600Z" fill="#001122" stroke="#001122"></path><path d="M688 396L701 301L633 338Z" fill="#672c6b" stroke="#672c6b"></path><path d="M219 204L194 313L333 297Z" fill="#25254e" stroke="#25254e"></path><path d="M194 313L181 426L283 397Z" fill="#141f40" stroke="#141f40"></path><path d="M701 301L669 197L633 338Z" fill="#982870" stroke="#982870"></path><path d="M627 76L515 100L585 184Z" fill="#982870" stroke="#982870"></path><path d="M585 184L515 100L461 197Z" fill="#001122" stroke="#001122"></path><path d="M212 600L275 600L264 483Z" fill="#672c6b" stroke="#672c6b"></path><path d="M212 600L264 483L211 461Z" fill="#4f2b64" stroke="#4f2b64"></path><path d="M313 172L219 204L333 297Z" fill="#982870" stroke="#982870"></path><path d="M191 93L219 204L313 172Z" fill="#39295a" stroke="#39295a"></path><path d="M515 100L370 87L461 197Z" fill="#7f2a6f" stroke="#7f2a6f"></path><path d="M370 87L318 90L313 172Z" fill="#7f2a6f" stroke="#7f2a6f"></path><path d="M823 461L781 367L688 396Z" fill="#672c6b" stroke="#672c6b"></path><path d="M688 396L781 367L701 301Z" fill="#071931" stroke="#071931"></path><path d="M701 301L790 178L669 197Z" fill="#982870" stroke="#982870"></path><path d="M76 529L212 600L211 461Z" fill="#7f2a6f" stroke="#7f2a6f"></path><path d="M565 600L696 600L666 516Z" fill="#001122" stroke="#001122"></path><path d="M666 516L823 461L688 396Z" fill="#071931" stroke="#071931"></path><path d="M781 367L784 316L701 301Z" fill="#4f2b64" stroke="#4f2b64"></path><path d="M697 80L627 76L669 197Z" fill="#141f40" stroke="#141f40"></path><path d="M669 197L627 76L585 184Z" fill="#672c6b" stroke="#672c6b"></path><path d="M515 100L374 0L370 87Z" fill="#7f2a6f" stroke="#7f2a6f"></path><path d="M191 93L132 231L219 204Z" fill="#25254e" stroke="#25254e"></path><path d="M219 204L132 231L194 313Z" fill="#7f2a6f" stroke="#7f2a6f"></path><path d="M194 313L69 409L181 426Z" fill="#071931" stroke="#071931"></path><path d="M181 426L76 529L211 461Z" fill="#af256e" stroke="#af256e"></path><path d="M781 367L900 382L784 316Z" fill="#4f2b64" stroke="#4f2b64"></path><path d="M783 600L823 461L666 516Z" fill="#4f2b64" stroke="#4f2b64"></path><path d="M627 76L527 0L515 100Z" fill="#4f2b64" stroke="#4f2b64"></path><path d="M370 87L316 0L318 90Z" fill="#7f2a6f" stroke="#7f2a6f"></path><path d="M527 0L374 0L515 100Z" fill="#7f2a6f" stroke="#7f2a6f"></path><path d="M318 90L191 93L313 172Z" fill="#39295a" stroke="#39295a"></path><path d="M790 178L697 80L669 197Z" fill="#39295a" stroke="#39295a"></path><path d="M627 76L627 0L527 0Z" fill="#141f40" stroke="#141f40"></path><path d="M316 0L191 93L318 90Z" fill="#c62368" stroke="#c62368"></path><path d="M66 265L69 409L194 313Z" fill="#4f2b64" stroke="#4f2b64"></path><path d="M784 316L790 178L701 301Z" fill="#25254e" stroke="#25254e"></path><path d="M900 239L790 178L784 316Z" fill="#7f2a6f" stroke="#7f2a6f"></path><path d="M374 0L316 0L370 87Z" fill="#39295a" stroke="#39295a"></path><path d="M696 600L783 600L666 516Z" fill="#c62368" stroke="#c62368"></path><path d="M0 175L66 265L132 231Z" fill="#25254e" stroke="#25254e"></path><path d="M132 231L66 265L194 313Z" fill="#4f2b64" stroke="#4f2b64"></path><path d="M69 409L76 529L181 426Z" fill="#672c6b" stroke="#672c6b"></path><path d="M697 80L627 0L627 76Z" fill="#39295a" stroke="#39295a"></path><path d="M706 0L627 0L697 80Z" fill="#001122" stroke="#001122"></path><path d="M76 529L87 600L212 600Z" fill="#672c6b" stroke="#672c6b"></path><path d="M790 178L774 76L697 80Z" fill="#c62368" stroke="#c62368"></path><path d="M189 0L138 65L191 93Z" fill="#672c6b" stroke="#672c6b"></path><path d="M191 93L138 65L132 231Z" fill="#001122" stroke="#001122"></path><path d="M900 526L900 382L823 461Z" fill="#c62368" stroke="#c62368"></path><path d="M823 461L900 382L781 367Z" fill="#672c6b" stroke="#672c6b"></path><path d="M790 178L900 136L774 76Z" fill="#001122" stroke="#001122"></path><path d="M69 409L0 519L76 529Z" fill="#c62368" stroke="#c62368"></path><path d="M76 529L0 600L87 600Z" fill="#7f2a6f" stroke="#7f2a6f"></path><path d="M66 265L0 391L69 409Z" fill="#071931" stroke="#071931"></path><path d="M0 280L0 391L66 265Z" fill="#c62368" stroke="#c62368"></path><path d="M774 76L706 0L697 80Z" fill="#4f2b64" stroke="#4f2b64"></path><path d="M316 0L189 0L191 93Z" fill="#c62368" stroke="#c62368"></path><path d="M900 382L900 271L784 316Z" fill="#4f2b64" stroke="#4f2b64"></path><path d="M0 175L0 280L66 265Z" fill="#071931" stroke="#071931"></path><path d="M900 271L900 239L784 316Z" fill="#c62368" stroke="#c62368"></path><path d="M783 600L900 526L823 461Z" fill="#25254e" stroke="#25254e"></path><path d="M0 391L0 519L69 409Z" fill="#071931" stroke="#071931"></path><path d="M138 65L0 175L132 231Z" fill="#25254e" stroke="#25254e"></path><path d="M0 111L0 175L138 65Z" fill="#982870" stroke="#982870"></path><path d="M783 600L900 600L900 526Z" fill="#25254e" stroke="#25254e"></path><path d="M0 519L0 600L76 529Z" fill="#4f2b64" stroke="#4f2b64"></path><path d="M900 239L900 136L790 178Z" fill="#141f40" stroke="#141f40"></path><path d="M774 76L837 0L706 0Z" fill="#982870" stroke="#982870"></path><path d="M68 0L0 111L138 65Z" fill="#4f2b64" stroke="#4f2b64"></path><path d="M189 0L68 0L138 65Z" fill="#982870" stroke="#982870"></path><path d="M900 136L837 0L774 76Z" fill="#af256e" stroke="#af256e"></path><path d="M900 136L900 0L837 0Z" fill="#001122" stroke="#001122"></path><path d="M68 0L0 0L0 111Z" fill="#141f40" stroke="#141f40"></path></g></svg>